<svg width="32" height="32" viewBox="0 0 32 32" fill="none" xmlns="http://www.w3.org/2000/svg">
<rect width="32" height="32" rx="5" fill="#142032"/>
<path d="M23.7997 8.8H22.5997V7.8403C22.5997 7.378 22.2523 7 21.8287 7H17.9695C17.5471 7 17.1997 7.378 17.1997 7.8403V8.8H9.98201L8.19971 12.4H9.43721V14.8H9.23681L8.23721 16L9.23681 17.2H9.45581V17.8444C9.45581 18.0073 9.58151 18.139 9.73721 18.139C10.2025 18.139 10.5811 18.5362 10.5811 19.0243C10.5811 19.5124 10.2025 19.9096 9.73721 19.9096C9.27191 19.9096 8.89331 19.5124 8.89331 19.0243C8.89331 18.8614 8.76731 18.7297 8.61191 18.7297C8.45621 18.7297 8.33051 18.8614 8.33051 19.0243C8.33111 19.8385 8.96171 20.5 9.73721 20.5C10.5124 20.5 11.1436 19.8385 11.1436 19.0246C11.1436 18.3121 10.6597 17.7157 10.0186 17.5792V17.2H10.2373L11.2372 16L10.2373 14.8H10.0372V12.4H17.1997V14.5597C17.1997 14.9581 17.458 15.292 17.7997 15.3778V25H18.5872V23.2L21.2122 24.1L18.5872 25H21.9997V15.3775C22.3417 15.292 22.5997 14.9581 22.5997 14.5597V12.4H23.7997V11.5H23.1763L23.7997 10.3165V8.8ZM9.59261 11.5L10.2934 10.0603L11.0512 11.5H9.59261ZM10.9192 9.7H12.1651L11.5423 10.8835L10.9192 9.7ZM12.0334 11.5L12.6565 10.3165L13.2799 11.5H12.0334ZM13.1479 9.7H14.3938L13.7707 10.8835L13.1479 9.7ZM14.2624 11.5L14.8852 10.3165L15.508 11.5H14.2624ZM15.3766 9.7H16.6225L15.9997 10.8835L15.3766 9.7ZM17.1997 11.5H16.4908L17.1136 10.3165L17.1997 10.48V11.5ZM21.2122 23.2L18.5872 22.3L21.2122 21.4V23.2ZM18.5872 21.4V19.6L21.2122 20.5006L18.5872 21.4ZM21.2122 19.6L18.5872 18.7L21.2122 17.8V19.6ZM18.5872 17.8V16.0006L21.2122 16.9L18.5872 17.8ZM21.2122 16.0006L19.4617 15.4H21.2122V16.0006ZM21.6622 10.9744C21.6622 11.2633 21.4594 11.5 21.2122 11.5H18.5116C18.2644 11.5 18.0622 11.2633 18.0622 10.9744V8.4274C18.0622 8.1367 18.2644 7.9 18.5116 7.9H21.2122C21.4594 7.9 21.6622 8.1367 21.6622 8.4274V10.9744ZM22.6852 10.8835L22.5997 10.7209V9.7H23.308L22.6852 10.8835Z" fill="#FF9F0A"/>
</svg>
