<svg width="1198" height="256" viewBox="0 0 1198 256" fill="none" xmlns="http://www.w3.org/2000/svg">
<path d="M109.324 55.9505C113.681 67.0281 125.066 72.9152 130.214 74.4741C131.993 81.2345 134.286 93.4468 129.225 88.2129C124.165 82.9789 106.933 75.5968 98.9494 72.56C71.3109 65.1543 70.8778 90.891 80.1829 100.386C87.6269 107.982 115.943 107.634 129.17 106.51L122.49 143.5C124.599 145.68 126.948 148.572 119.475 142.692C110.134 135.341 72.6257 114.519 65.059 136.728C59.0055 154.496 70.0925 164.175 78.1328 166.329C96.3988 171.223 109.602 169.489 116.431 166.113C114.596 177.65 110.439 199.732 108.487 195.762C106.046 190.799 91.9495 181.097 71.3462 175.576C54.8636 171.16 40.5856 177.812 41.2743 185.292C52.8922 222.337 95.4284 214.345 99.9511 215.557C103.569 216.526 92.1599 238.604 86.003 249.521C85.0789 246.94 79.4529 239.795 64.3418 231.868C45.4529 221.959 29.4385 229.977 28.7325 248.179C28.1856 262.281 58.2753 269.919 75.1517 271.928L33.5071 346.945L51.5713 345.861L87.2122 275.159C101.631 295.72 119.929 295.775 123.581 296.215C127.233 296.655 146.204 294.198 138.623 272.238C131.042 250.279 88.2101 253.344 93.5407 251.541C97.8052 250.099 106.626 228.836 110.504 218.385C148.577 243.128 167.262 227.668 173.939 220.84C180.616 214.011 166.089 199.885 153.759 197.659C143.895 195.878 124.493 196.998 116.025 197.781L123.969 168.133C127.675 170.382 139.898 175.417 159.145 177.558C178.392 179.699 183.797 169.98 184.093 164.853C185.117 159.024 182.634 146.581 164.514 143.449C146.395 140.318 133.166 146.54 128.816 150.042L136.915 103.738C165.342 118.249 177.135 108.411 179.477 101.678C181.984 97.6817 184.488 87.401 174.445 78.2469C164.402 69.0928 146.396 77.733 138.648 83.1973L136.819 71.9351C143.399 70.8259 157.236 64.4797 159.937 47.9682C163.313 27.3288 146.641 13.1668 130.524 11.0027C117.631 9.27149 110.596 20.3846 108.69 26.1576C103.398 34.6499 106.908 49.558 109.324 55.9505Z" fill="#F8F2E9"/>
<path d="M1060.76 178.487C1040.57 197.169 1041.96 267.451 1030.44 275.462C1025.49 281.888 996.145 279.455 980.045 279.991C948.186 281.053 913.819 272.236 898.283 264.539C880.666 251.85 843.911 247.866 827.736 247.46C797.974 252.793 783.991 247.03 780.719 243.482C754.398 223.418 778.117 202.15 793.267 194.024C830.263 172.779 886.054 202.161 899.345 214.842C909.977 224.987 945.117 235.091 961.358 238.875C968.913 241.844 991.341 243.842 1001.61 244.469L966.389 216.55C952.575 209.026 906.864 143.883 902.047 93.1331C898.194 52.5333 921.574 46.4742 933.746 48.5196C967.679 54.3954 981.497 110.191 982.877 132.857C983.98 150.99 998.327 188.204 1005.36 204.545C1008.26 214.287 1014.98 234.273 1018.51 233.762C1020.54 233.466 1019.52 230.758 1017.69 228.163C1004.99 187.449 1032.78 142.557 1042.41 124.221C1052.72 109.905 1075.73 86.3765 1094.4 68.4076C1125.22 32.8143 1122.01 32.6608 1140.44 30.6054C1166.73 32.89 1170.38 54.346 1170.35 70.0944C1170.3 93.6197 1147.7 115.724 1135.37 122.805C1102.38 137.575 1072.8 165.327 1060.76 178.487Z" fill="#F8F2E9"/>
<path d="M1065.92 144.132C1036.38 171.245 1027.75 207.371 1027.13 222.045C1027.07 225.098 1026.34 223.851 1025.98 222.846C1021.58 201.291 1029.98 184.855 1034.39 171.534C1038.8 158.212 1066.25 128.867 1068.55 127.265C1070.85 125.663 1094.32 103.869 1099.64 101.196C1104.96 98.5219 1128.51 72.9126 1129.48 70.8694C1130.46 68.8261 1143.47 53.6227 1133.83 70.2388C1132.84 71.9553 1121.27 88.5473 1120.3 90.5906C1119.33 92.6338 1102.86 110.241 1065.92 144.132Z" fill="#F3DEE5"/>
<path d="M950.758 115.183C949.685 111.28 944.66 99.3697 942.907 96.0307C945.857 146.964 961.971 170.624 965.095 179.049C968.219 187.473 983.181 211.934 995.45 222.202C1007.72 232.47 1006.03 229.545 1004.24 225.999C1002.82 223.163 998.816 219.178 993.468 208.54C980.749 195.167 968.448 166.672 965.938 158.635C961.202 143.47 952.1 120.061 950.758 115.183Z" fill="#F3DEE5"/>
<path d="M880.542 229.993C875.213 228.229 844.874 220.16 830.02 218.298C835.61 217.488 839.596 214.373 853.619 214.875C867.642 215.378 890.485 223.301 901.396 229.504C913.835 236.577 911.711 239.421 963.304 254.131C967.457 255.315 994.554 259.743 1004.94 261.407C1004.24 263.539 997.195 263.376 993.763 263.029C949.3 262.503 899.191 236.165 880.542 229.993Z" fill="#F3DEE5"/>
<path d="M384.558 124.367C382.429 129.352 378.444 149.766 376.968 160.261L384.558 153.964C391.284 148.874 417.026 142.629 429.465 140.11C457.294 136.331 482.594 143.888 487.021 167.818C491.449 191.747 462.354 200.564 450.969 206.861C439.585 213.158 401.635 215.047 391.516 215.047H373.174V254.091C374.439 252.831 380.763 249.557 395.943 246.534C414.918 242.755 456.029 242.126 482.594 250.312C509.158 258.499 509.158 280.539 497.773 295.023C486.389 309.507 458.559 307.618 447.807 307.618H406.695C390.883 312.026 401.635 329.658 401.635 338.474C401.635 347.29 419.978 366.812 422.508 375.628C424.532 382.681 416.604 387.803 412.388 389.482C405.304 392.001 400.139 384.724 395.943 380.666C390.883 377.14 372.942 374.648 364.319 371.499C350.172 372.759 332.273 368.072 326.37 366.812C295.378 360.2 293.059 347.29 295.378 338.474C303.474 322.353 327.002 322.101 337.754 323.99C349.139 323.361 364.319 332.807 364.319 329.658C364.319 326.509 351.037 315.174 344.079 311.396C338.513 308.373 293.269 295.443 271.343 289.355C237.948 282.302 230.021 260.388 230.232 250.312C230.232 212.529 275.138 224.493 289.053 228.272C300.185 231.294 326.159 244.225 337.754 250.312C337.248 240.237 289.053 212.948 265.018 200.564C233.647 181.924 228.756 155.013 230.232 143.888C231.286 136.854 238.201 122.881 257.429 123.261C280.494 121.748 318.149 160.532 326.37 164.039C333.453 167.062 329.321 162.78 326.37 160.261C314.226 149.178 306.552 114.501 304.232 98.5476C301.196 77.8925 304.001 50.6364 313.087 39.9829C334.339 17.8164 354.6 20.4094 364.319 25.4991C394.447 38.6716 395.311 76.5071 395.943 81.545C396.575 86.5828 386.687 119.381 384.558 124.367Z" fill="#F8F2E9"/>
<ellipse cx="348.275" cy="87.4913" rx="3.16243" ry="3.77837" fill="#F3DEE5"/>
<ellipse cx="348.275" cy="60.4137" rx="3.16243" ry="5.66756" fill="#F3DEE5"/>
<ellipse rx="3.79311" ry="5.51275" transform="matrix(0.943917 0.330183 -0.332763 0.943011 370.767 51.4178)" fill="#F3DEE5"/>
<ellipse rx="3.79311" ry="5.51275" transform="matrix(0.943917 0.330183 -0.332762 0.943011 378.357 77.5692)" fill="#F3DEE5"/>
<ellipse rx="3.79311" ry="5.51275" transform="matrix(0.943917 0.330183 -0.332763 0.943011 370.767 104.018)" fill="#F3DEE5"/>
<ellipse rx="3.7931" ry="5.51275" transform="matrix(0.943917 0.330184 -0.332762 0.943011 368.237 127.948)" fill="#F3DEE5"/>
<ellipse rx="3.7949" ry="5.51011" transform="matrix(0.999492 -0.0318722 0.0321517 0.999483 321.253 98.1578)" fill="#F3DEE5"/>
<ellipse rx="3.7949" ry="5.51012" transform="matrix(0.999492 -0.0318722 0.0321517 0.999483 317.458 74.2281)" fill="#F3DEE5"/>
<ellipse rx="3.79422" ry="5.51112" transform="matrix(0.978669 0.205443 -0.207169 0.978305 331.373 42.7414)" fill="#F3DEE5"/>
<ellipse rx="3.79175" ry="5.51473" transform="matrix(0.899687 0.436535 -0.439629 0.89818 353.763 35.7276)" fill="#F3DEE5"/>
<ellipse rx="3.79175" ry="5.51474" transform="matrix(0.899687 0.436535 -0.439629 0.89818 345.889 112.992)" fill="#F3DEE5"/>
<ellipse cx="351.438" cy="146.056" rx="3.79492" ry="5.66756" fill="#F3DEE5"/>
<ellipse rx="3.79175" ry="5.67233" transform="matrix(0.899605 -0.436704 0.439799 0.898096 325.719 133.285)" fill="#F3DEE5"/>
<ellipse rx="3.78837" ry="5.04658" transform="matrix(0.778407 -0.627759 0.631081 0.775717 260.168 140.385)" fill="#F3DEE5"/>
<ellipse rx="3.9362" ry="5.04658" transform="matrix(0.778408 -0.627759 0.631081 0.775717 244.874 151.813)" fill="#F3DEE5"/>
<ellipse rx="3.94102" ry="5.69712" transform="matrix(0.941069 -0.338216 0.340841 0.940121 260.507 167.544)" fill="#F3DEE5"/>
<ellipse rx="3.9346" ry="5.70645" transform="matrix(0.716427 -0.697662 0.700786 0.713372 284.887 157.281)" fill="#F3DEE5"/>
<ellipse rx="3.94002" ry="5.69858" transform="matrix(0.909802 -0.415043 0.418052 0.908423 278.976 184.985)" fill="#F3DEE5"/>
<ellipse rx="3.94" ry="5.6986" transform="matrix(0.909135 -0.416502 0.419517 0.907747 308.076 171.132)" fill="#F3DEE5"/>
<ellipse rx="3.94174" ry="5.69607" transform="matrix(0.962989 -0.26954 0.271731 0.962373 308.712 196.052)" fill="#F3DEE5"/>
<ellipse rx="4.52017" ry="6.9891" transform="matrix(0.983668 -0.179993 0.181521 0.983387 339.443 174.524)" fill="#F3DEE5"/>
<ellipse rx="3.5777" ry="5.43666" transform="matrix(0.962005 0.273031 -0.275247 0.961374 358.906 175.196)" fill="#F3DEE5"/>
<ellipse rx="3.57126" ry="5.44651" transform="matrix(0.716767 0.697312 -0.700437 0.713714 399.556 163.139)" fill="#F3DEE5"/>
<ellipse rx="3.57126" ry="5.44651" transform="matrix(0.716767 0.697312 -0.700437 0.713714 437.506 163.139)" fill="#F3DEE5"/>
<ellipse rx="3.57126" ry="5.44651" transform="matrix(0.716767 0.697312 -0.700437 0.713714 460.275 153.064)" fill="#F3DEE5"/>
<ellipse rx="3.57127" ry="5.44651" transform="matrix(0.716767 0.697312 -0.700437 0.713714 465.335 174.474)" fill="#F3DEE5"/>
<ellipse rx="3.57127" ry="5.44651" transform="matrix(0.716767 0.697313 -0.700437 0.713714 442.565 189.588)" fill="#F3DEE5"/>
<ellipse rx="3.57127" ry="5.44651" transform="matrix(0.716768 0.697312 -0.700438 0.713713 418.531 179.512)" fill="#F3DEE5"/>
<ellipse rx="3.57817" ry="5.43597" transform="matrix(0.976866 0.213854 -0.215646 0.976472 390.259 194.321)" fill="#F3DEE5"/>
<ellipse rx="3.57816" ry="5.43596" transform="matrix(0.976865 0.213855 -0.215646 0.976472 359.9 201.879)" fill="#F3DEE5"/>
<ellipse rx="3.57673" ry="5.43816" transform="matrix(0.929055 -0.369943 0.37274 0.927936 338.395 204.397)" fill="#F3DEE5"/>
<ellipse rx="3.57816" ry="5.43598" transform="matrix(0.976865 0.213856 -0.215645 0.976472 344.72 227.067)" fill="#F3DEE5"/>
<ellipse rx="3.85514" ry="5.10571" transform="matrix(0.786911 -0.617066 0.6417 0.766955 261.017 233.586)" fill="#F3DEE5"/>
<ellipse rx="4.00557" ry="5.10571" transform="matrix(0.786912 -0.617066 0.6417 0.766955 245.283 243.758)" fill="#F3DEE5"/>
<ellipse rx="3.97036" ry="5.82193" transform="matrix(0.588621 -0.808409 0.825999 0.563672 273.329 258.979)" fill="#F3DEE5"/>
<ellipse rx="3.96978" ry="5.82276" transform="matrix(0.584744 -0.811218 0.828628 0.559799 286.642 244.186)" fill="#F3DEE5"/>
<ellipse rx="3.62485" ry="5.52465" transform="matrix(0.726467 0.687201 -0.710377 0.703821 404.411 256.347)" fill="#F3DEE5"/>
<ellipse rx="3.57463" ry="5.60027" transform="matrix(0.303159 0.95294 -0.95831 0.28573 438.009 252.568)" fill="#F3DEE5"/>
<ellipse rx="3.62485" ry="5.52465" transform="matrix(0.726467 0.687201 -0.710377 0.703821 466.875 255.084)" fill="#F3DEE5"/>
<ellipse rx="4.85643" ry="5.52897" transform="matrix(0.709665 -0.704539 0.727159 0.686469 313.991 257.184)" fill="#F3DEE5"/>
<ellipse rx="3.86544" ry="5.52898" transform="matrix(0.709665 -0.704539 0.727158 0.68647 358.834 255.363)" fill="#F3DEE5"/>
<path d="M742.924 238.341C724.964 240.956 706.878 242.606 688.754 243.384C691.224 242.469 693.702 241.575 696.165 240.637C713.199 234.155 731.009 227.729 744.609 215.126C747.349 212.587 743.843 208.233 740.68 210.028C717.847 222.99 693.324 232.686 667.888 238.923C684.446 223.115 697.765 203.646 710.472 184.777C712.501 181.764 707.675 177.933 705.38 180.844C694.606 194.517 683 207.459 671.009 220.046C679.919 204.863 687.429 188.76 694.77 172.832C696.488 169.107 691.242 165.842 689.172 169.555C676.875 191.61 663.24 212.905 648.346 233.287C659.29 203.948 667.646 173.694 673.128 142.823C673.855 138.725 668.28 137.121 666.875 141.097C659.248 162.705 652.279 184.539 645.966 206.563C648.344 185.513 650.723 164.463 653.103 143.413C653.572 139.255 647.116 139.324 646.619 143.413C644.315 162.371 641.683 181.288 638.761 200.161C639.069 179.795 638.269 159.414 636.277 139.126C635.877 135.051 629.79 134.866 629.793 139.126C629.817 165.229 629.84 191.333 629.863 217.436C625.871 196.319 618.571 175.75 611.283 155.582C609.883 151.709 603.78 153.264 605.03 157.307C612.558 181.631 619.322 206.183 625.385 230.912C625.554 232.344 625.708 233.777 625.838 235.215C613.883 213.291 601.928 191.369 589.973 169.444C587.969 165.769 582.432 169.029 584.374 172.722C593.383 189.851 602.392 206.978 611.401 224.105C599.602 211.457 586.97 199.599 573.496 188.693C570.275 186.107 565.66 190.653 568.911 193.283C581.699 203.556 593.468 215.066 603.958 227.686C605.523 229.568 607.046 231.482 608.549 233.411C593.651 226.018 578.423 219.299 562.896 213.311C559.96 212.179 557.216 216.767 559.743 218.736C575.13 230.728 592.286 240.138 610.47 246.729C611.797 247.415 613.122 248.103 614.456 248.775C595.716 247.098 576.977 245.42 558.236 243.742C554.637 243.42 553.758 249.54 557.374 250.117C566.092 251.509 574.828 252.896 583.583 254.166C574.017 256.149 564.563 258.698 555.299 261.846C551.292 263.207 552.944 268.787 557.023 268.106C577.047 264.757 597.213 262.325 617.462 260.846C620.353 260.634 623.28 260.399 626.211 260.202C621.857 274.551 616.883 288.697 611.256 302.579C602.938 320.083 594.621 337.586 586.302 355.09C584.534 358.812 589.859 362.075 591.901 358.367C601.408 341.091 609.863 323.251 617.27 304.983C623.668 291.519 630.067 278.054 636.465 264.589C655.229 278.535 674.82 291.318 694.421 304.049C697.959 306.347 701.066 300.812 697.694 298.443C681.933 287.377 666.17 276.312 650.409 265.246C669.861 270.526 689.312 275.807 708.764 281.087C712.81 282.187 714.449 276.093 710.488 274.827C700.499 271.637 690.529 268.369 680.546 265.143C696.961 266.783 713.374 268.422 729.789 270.061C733.404 270.422 734.232 264.376 730.651 263.684C712.441 260.168 694.228 256.651 676.017 253.134C699.033 251.604 721.955 248.765 744.653 244.599C748.8 243.84 746.966 237.754 742.924 238.341Z" fill="#F8F2E9"/>
</svg>
