<svg width="32" height="32" viewBox="0 0 32 32" fill="none" xmlns="http://www.w3.org/2000/svg">
<rect width="32" height="32" rx="5" fill="#142032"/>
<g clip-path="url(#clip0)">
<path d="M9.71752 21.0058C9.55628 21.0084 9.39616 20.9783 9.24647 20.9174C9.09679 20.8565 8.96053 20.7659 8.84563 20.651C8.73073 20.5361 8.63949 20.3991 8.57722 20.248C8.51495 20.0969 8.48289 19.9348 8.48291 19.771C8.48293 19.6073 8.51503 19.4451 8.57734 19.2941C8.63964 19.143 8.73092 19.006 8.84584 18.8912C8.96077 18.7763 9.09705 18.6858 9.24675 18.6249C9.39644 18.564 9.55657 18.534 9.71781 18.5365C10.0369 18.5416 10.3413 18.674 10.5652 18.905C10.7891 19.136 10.9146 19.4472 10.9145 19.7713C10.9145 20.0955 10.7889 20.4066 10.565 20.6376C10.341 20.8686 10.0366 21.0008 9.71752 21.0058Z" fill="#FF9F0A"/>
<path d="M7.26934 25.4835V23.0643C7.26934 22.1919 7.97501 21.483 8.83488 21.483H10.5135C11.3734 21.483 12.1414 22.1919 12.1414 23.0643V25.4835H7.26904H7.26934Z" fill="#FF9F0A"/>
<path d="M22.3208 20.9012C22.6432 20.9009 22.9522 20.7706 23.1801 20.539C23.408 20.3075 23.5361 19.9935 23.5363 19.6661C23.5399 19.5017 23.5111 19.3382 23.4516 19.1852C23.3921 19.0323 23.3031 18.8929 23.1899 18.7754C23.0767 18.6578 22.9415 18.5644 22.7922 18.5007C22.643 18.4369 22.4827 18.4041 22.3208 18.4041C22.1589 18.4041 21.9986 18.4369 21.8493 18.5007C21.7001 18.5644 21.5649 18.6578 21.4517 18.7754C21.3384 18.8929 21.2495 19.0323 21.19 19.1852C21.1305 19.3382 21.1017 19.5017 21.1053 19.6661C21.1054 19.9935 21.2334 20.3075 21.4613 20.5391C21.6893 20.7707 21.9984 20.9009 22.3208 20.9012Z" fill="#FF9F0A"/>
<path d="M24.7677 25.4835V23.0643C24.7677 22.1919 24.062 21.483 23.2015 21.483H21.5246C20.6633 21.483 19.8965 22.1919 19.8965 23.0643V25.4835H24.7674H24.7677Z" fill="#FF9F0A"/>
<path d="M16.0168 20.9992C15.3374 20.9992 14.7871 20.4445 14.7871 19.7608C14.7871 19.0771 15.3374 18.5221 16.0168 18.5221C16.6956 18.5221 17.2459 19.0768 17.2459 19.7608C17.2459 20.4448 16.6959 20.9992 16.0168 20.9992Z" fill="#FF9F0A"/>
<path d="M13.0557 25.4836L14.0233 22.8061C14.4109 21.4384 15.5396 21.4807 15.5396 21.4807H16.4975C16.4975 21.4807 17.6256 21.4387 18.0137 22.8061L18.9814 25.4836H13.0557Z" fill="#FF9F0A"/>
<path d="M16.0165 16.9589V14.0294L15.5377 13.5431V16.4711H8.29394V7.1567H15.5377V11.9417L16.0165 12.4277V6.6698H7.81689V16.9586L16.0165 16.9589Z" fill="#FF9F0A"/>
<path d="M11.8455 9.1585C12.0121 9.15127 12.1696 9.07895 12.285 8.95664C12.4004 8.83433 12.4648 8.67149 12.4648 8.5021C12.4648 8.33272 12.4004 8.16987 12.285 8.04757C12.1696 7.92526 12.0121 7.85294 11.8455 7.8457C11.6741 7.8457 11.5097 7.91486 11.3885 8.03796C11.2673 8.16106 11.1992 8.32802 11.1992 8.5021C11.1992 8.67619 11.2673 8.84315 11.3885 8.96625C11.5097 9.08935 11.6741 9.1585 11.8455 9.1585Z" fill="#FF9F0A"/>
<path d="M13.9797 11.8864C13.9797 11.8864 13.4495 10.0573 13.4486 10.0558C13.2374 9.34388 12.646 9.36518 12.646 9.36518H11.0462C11.0462 9.36518 10.454 9.34388 10.2431 10.0558L9.71285 11.8864C9.70188 11.9219 9.69798 11.9592 9.70139 11.9962C9.70479 12.0333 9.71543 12.0692 9.73267 12.102C9.74992 12.1349 9.77343 12.1638 9.80183 12.1873C9.83023 12.2108 9.86296 12.2283 9.89809 12.2388C9.93322 12.2493 9.97006 12.2525 10.0065 12.2484C10.0428 12.2442 10.0781 12.2328 10.11 12.2147C10.142 12.1966 10.1701 12.1721 10.1927 12.1429C10.2153 12.1136 10.2319 12.08 10.2416 12.0442L10.7479 10.2937L10.7491 10.2943L10.9747 10.2937V12.2857L10.0836 15.3919C10.067 15.4491 10.0639 15.5095 10.0743 15.5682C10.0848 15.6269 10.1085 15.6823 10.1437 15.73C10.1789 15.7778 10.2246 15.8165 10.2771 15.8433C10.3296 15.87 10.3876 15.8839 10.4463 15.8839C10.6102 15.8839 10.7615 15.775 10.8099 15.6076L11.6902 12.5404H12.0018L12.882 15.6076C12.8959 15.656 12.9191 15.7012 12.9502 15.7405C12.9813 15.7799 13.0197 15.8126 13.0633 15.8368C13.1069 15.861 13.1547 15.8763 13.2041 15.8817C13.2535 15.8871 13.3034 15.8825 13.3511 15.8683C13.3988 15.8542 13.4433 15.8306 13.482 15.799C13.5207 15.7674 13.5529 15.7284 13.5768 15.6842C13.6006 15.6399 13.6157 15.5913 13.6211 15.5412C13.6264 15.491 13.622 15.4403 13.6081 15.3919L12.7169 12.2872V10.294L12.9426 10.2946L12.9438 10.294L13.4506 12.0445C13.4713 12.1157 13.5189 12.1757 13.583 12.2112C13.6148 12.2288 13.6496 12.2399 13.6856 12.2438C13.7216 12.2478 13.758 12.2444 13.7927 12.2341C13.8274 12.2237 13.8598 12.2065 13.888 12.1834C13.9161 12.1604 13.9396 12.1319 13.9569 12.0996C13.9742 12.0674 13.9851 12.032 13.989 11.9954C13.9929 11.9589 13.9896 11.9219 13.9794 11.8867L13.9797 11.8864Z" fill="#FF9F0A"/>
<path d="M22.3152 11.6108C21.9979 11.6037 21.696 11.4707 21.4741 11.2403C21.2522 11.0099 21.1279 10.7004 21.1279 10.3781C21.1279 10.0558 21.2522 9.74629 21.4741 9.51589C21.696 9.28549 21.9979 9.1525 22.3152 9.14539C22.4746 9.14527 22.6325 9.1771 22.7798 9.23905C22.9271 9.30101 23.0609 9.39187 23.1736 9.50644C23.2862 9.621 23.3755 9.75702 23.4364 9.9067C23.4972 10.0564 23.5283 10.2168 23.528 10.3787C23.5283 10.5405 23.4971 10.7008 23.4362 10.8504C23.3753 11 23.286 11.1359 23.1733 11.2503C23.0607 11.3648 22.9269 11.4555 22.7796 11.5174C22.6324 11.5792 22.4745 11.611 22.3152 11.6108Z" fill="#FF9F0A"/>
<path d="M22.315 13.444C22.315 13.444 22.6095 13.4827 22.7897 13.2292C22.9528 12.9976 22.9649 12.2302 22.9661 12.0913H21.6628C21.6584 12.6436 21.7216 13.0462 21.8516 13.249C21.9827 13.456 22.315 13.4443 22.315 13.4443V13.444Z" fill="#FF9F0A"/>
<path d="M17.0265 14.5309C16.9819 14.6053 16.9125 14.7565 16.9125 14.8519C16.9125 15.1399 17.1414 15.3712 17.4241 15.3712H19.1069C19.2981 15.3712 19.5491 15.2929 19.6564 15.1297C20.0182 14.584 20.4007 14.0089 20.5136 13.837V17.0686H24.7517V13.7545C24.7517 12.8878 24.0851 12.1075 23.2964 12.1075C23.2984 12.5143 23.2447 13.1899 23.0102 13.4857C22.7653 13.7878 22.477 13.7614 22.477 13.7614V15.0223C22.5678 15.0599 22.6429 15.1285 22.6894 15.2163C22.7359 15.304 22.7508 15.4055 22.7317 15.5032C22.7125 15.6009 22.6605 15.6888 22.5845 15.7518C22.5085 15.8149 22.4132 15.849 22.3151 15.8485C22.2595 15.8485 22.2045 15.8374 22.1532 15.8158C22.1018 15.7942 22.0552 15.7625 22.0159 15.7226C21.9767 15.6827 21.9455 15.6353 21.9243 15.5831C21.9031 15.5309 21.8923 15.475 21.8924 15.4186C21.8924 15.2401 21.9993 15.0871 22.1524 15.0223V13.7557C22.1524 13.7557 21.9007 13.7767 21.6629 13.5346C21.3454 13.1986 21.3335 12.2464 21.3341 12.0907H21.257C21.0008 12.0905 20.7484 12.1546 20.5224 12.2774C20.2964 12.4002 20.1038 12.5778 19.9618 12.7945L18.9542 14.3386L17.4256 14.338L15.2669 12.1453C15.2477 12.1256 15.2248 12.11 15.1996 12.0993C15.1744 12.0886 15.1473 12.0831 15.12 12.0831C15.0927 12.0831 15.0656 12.0886 15.0404 12.0993C15.0152 12.11 14.9923 12.1256 14.973 12.1453C14.9536 12.1649 14.9382 12.1881 14.9277 12.2138C14.9171 12.2394 14.9117 12.2669 14.9116 12.2947C14.9116 12.3225 14.9169 12.35 14.9273 12.3757C14.9378 12.4014 14.9531 12.4247 14.9724 12.4444L17.0268 14.5312L17.0265 14.5309Z" fill="#FF9F0A"/>
</g>
<defs>
<clipPath id="clip0">
<rect width="19.2" height="19.2" fill="white" transform="translate(6.3999 6.40002)"/>
</clipPath>
</defs>
</svg>
