<svg width="32" height="32" viewBox="0 0 32 32" fill="none" xmlns="http://www.w3.org/2000/svg">
<rect width="32" height="32" rx="5" fill="#142032"/>
<path d="M14.1427 18.1961C13.8844 17.9627 13.4152 17.9657 13.0768 18.1979C12.9955 18.2537 12.874 18.2528 12.8113 18.1955C12.7492 18.1394 12.7675 18.0464 12.8488 17.9909C12.9307 17.9345 13.0468 17.9345 13.1119 17.9936C13.2649 17.8868 13.4167 17.7794 13.5682 17.6714C13.3546 17.4767 13.0099 17.4425 12.7084 17.5556C12.6655 17.5163 12.6226 17.4776 12.5794 17.4377C12.4426 17.5328 12.3052 17.627 12.1675 17.7206C12.2128 17.7617 12.2587 17.8034 12.3049 17.8445C12.1426 18.059 12.1435 18.32 12.343 18.5006C12.4543 18.6017 12.6037 18.6614 12.7699 18.6788C12.9919 18.7028 13.2382 18.65 13.4302 18.5177C13.5118 18.4622 13.6282 18.4622 13.6906 18.5189C13.7533 18.5759 13.7401 18.6692 13.6585 18.7253C13.5772 18.7814 13.4554 18.7802 13.3927 18.7241C13.2388 18.8276 13.084 18.9305 12.928 19.0322C13.126 19.2116 13.4626 19.2572 13.7575 19.1633C13.8109 19.2116 13.8634 19.2605 13.9171 19.3085C14.0554 19.2152 14.1925 19.1216 14.329 19.0265C14.2771 18.9808 14.2259 18.9343 14.1754 18.887C14.356 18.6644 14.3482 18.3839 14.1427 18.1961Z" fill="#FF9F0A"/>
<path d="M19.3368 12.9296C19.5321 12.9296 19.7364 12.8369 19.8813 12.662C19.9431 12.5879 20.043 12.5738 20.1054 12.6305C20.1684 12.6872 20.1714 12.7952 20.1099 12.8693C20.0481 12.9437 19.9431 12.9575 19.8807 12.9011C19.7637 13.0394 19.6458 13.1765 19.5273 13.3127C19.725 13.4924 20.0223 13.5011 20.2614 13.3565L20.4213 13.5014C20.5263 13.3775 20.6298 13.2533 20.7324 13.1279L20.5791 12.989C20.6994 12.7124 20.649 12.3935 20.4441 12.2066C20.1852 11.9726 19.7832 12.0356 19.5282 12.3416C19.4664 12.416 19.3614 12.4298 19.299 12.3734C19.2363 12.3164 19.2387 12.2084 19.2996 12.1343C19.3623 12.0605 19.4616 12.0455 19.5264 12.104C19.6419 11.9642 19.7562 11.8226 19.8687 11.6807C19.6545 11.4863 19.3542 11.4899 19.1124 11.657L18.9825 11.5394C18.8802 11.6648 18.7761 11.7893 18.6714 11.9129C18.7173 11.9543 18.7632 11.9963 18.8088 12.0371C18.7023 12.3026 18.7419 12.6002 18.942 12.7808C19.0536 12.8825 19.1907 12.932 19.3368 12.9296Z" fill="#FF9F0A"/>
<path d="M24.3088 15.9079C24.5472 15.6186 24.7777 15.3229 25 15.0211C24.9067 14.2735 24.8044 13.5181 24.6922 12.7576L24.6535 12.7228L24.7948 12.5158L24.4408 12.1942C22.6909 10.6057 20.9416 9.0175 19.1917 7.4296L18.7186 7L18.3592 7.5271C17.7469 8.421 17.0852 9.28013 16.3774 10.1005C16.4161 9.9361 16.4584 9.7666 16.5046 9.5905C16.6939 8.872 16.4722 8.3842 16.2526 8.1019C15.8437 7.5754 15.0697 7.285 14.0722 7.285C11.2438 7.285 7.1518 9.5092 7.1518 13.5307C7.1518 14.0827 7.5196 14.4685 8.0458 14.4685C8.4343 14.4685 8.8831 14.2513 9.3871 13.8208C9.4345 13.9837 9.5059 14.1376 9.6103 14.2684C9.8101 14.5192 10.1047 14.6575 10.4401 14.6575C10.5154 14.6575 10.5928 14.6509 10.6723 14.6371C10.708 14.8102 10.7734 14.9815 10.8778 15.1309C9.90226 15.834 8.88828 16.4822 7.8406 17.0725L7.1749 17.446L7.7062 17.9284C7.5976 17.9956 7.4887 18.0631 7.3804 18.1285C7.2604 18.6829 7.1335 19.2301 7 19.7674C8.9215 21.5122 10.8427 23.2555 12.7639 25C14.4366 24.09 16.0549 23.0833 17.6104 21.985C17.611 21.9859 17.611 21.9871 17.6116 21.9877C17.7562 22.2388 17.992 22.4104 18.3145 22.5019C17.7562 23.1466 17.5555 23.6989 17.7175 24.1498C17.8468 24.5089 18.1795 24.7234 18.6079 24.7234C22.6537 24.7234 24.8911 20.656 24.8911 17.8444C24.8911 17.1739 24.7576 16.5961 24.505 16.174C24.4476 16.0797 24.3819 15.9907 24.3088 15.9079ZM16.1578 11.1823C17.1241 10.1248 18.0172 9.0103 18.8176 7.8361C20.5675 9.4243 22.3171 11.0122 24.0667 12.601C23.3405 13.6613 22.5471 14.674 21.6913 15.6328C21.4141 15.6913 21.1522 15.742 20.9122 15.781C21.6616 14.9734 22.3717 14.1349 23.0236 13.2562L22.8487 13.0975C22.6552 12.922 22.6273 12.6079 22.7806 12.3937C22.8268 12.3283 22.8733 12.2638 22.9195 12.199C21.7528 11.1406 20.5864 10.0813 19.4206 9.0229L19.2817 9.2176C19.1281 9.4312 18.8422 9.4609 18.6496 9.2854L18.4744 9.1273C17.7304 10.1299 16.9147 11.0833 16.0453 11.9929C16.0714 11.7487 16.1077 11.4796 16.1578 11.1823ZM18.2713 14.1232C17.659 13.567 16.8016 13.4413 16.0345 13.6939C16.0114 13.543 15.9781 13.2265 15.9934 12.7285C16.9086 11.8082 17.7643 10.8306 18.5554 9.8017C18.8533 9.9562 19.2076 9.9217 19.4692 9.7081L22.3126 12.289C22.1788 12.6184 22.2112 13.0048 22.4044 13.2964C21.7144 14.1973 20.9656 15.0568 20.173 15.8809C19.8406 15.9179 19.5064 15.9375 19.1719 15.9394C19.0762 15.9394 18.9916 15.937 18.9127 15.9337C19.0204 15.2881 18.7993 14.6023 18.2713 14.1232ZM10.5046 14.1001C10.4836 14.1019 10.4602 14.1064 10.4404 14.1064C9.7699 14.1064 9.8356 13.1455 9.9067 12.6802C10.2766 12.3118 10.6246 11.9272 10.9879 11.5636C11.3713 11.173 11.7742 10.8034 12.2275 10.5088C12.6805 10.2166 13.195 10.0093 13.7527 9.9577C13.1956 9.9001 12.6133 10.0453 12.1168 10.3237C11.614 10.597 11.1847 10.9756 10.7899 11.371C10.3978 11.7706 10.0381 12.193 9.6757 12.6085C9.3106 13.0186 8.9494 13.4302 8.5087 13.7692C8.3236 13.8706 8.1682 13.9171 8.0455 13.9171C7.822 13.9171 7.7056 13.7665 7.7056 13.5304C7.7056 9.7693 11.6137 7.8358 14.0716 7.8358C15.3616 7.8358 16.2526 8.3692 15.967 9.451C15.1396 12.5944 15.52 13.9501 15.52 13.9501C15.196 14.5546 14.5714 14.7511 14.5714 14.7511C14.231 14.6593 13.8799 14.6134 13.5274 14.6146C12.8212 14.6146 12.3217 14.7898 12.3217 14.7898C12.0577 14.9392 11.8537 14.9995 11.6962 14.9995C11.1262 14.9995 11.1694 14.2051 11.2012 13.93C11.2765 13.8946 11.3497 13.8562 11.4202 13.8148C11.7028 13.6522 11.9524 13.4482 12.196 13.2484C12.4366 13.045 12.6706 12.8419 12.9184 12.6634C13.1671 12.4876 13.4347 12.3412 13.7521 12.2824C13.6718 12.2681 13.5902 12.2628 13.5088 12.2665C13.264 12.2776 13.0183 12.364 12.8044 12.4801C12.5131 12.634 12.2614 12.8374 12.0172 13.0375C11.7763 13.2424 11.5429 13.4476 11.2999 13.6363C11.0578 13.8223 10.8025 13.9873 10.5046 14.1001ZM16.5775 20.2525C15.5464 21.0019 14.4729 21.6913 13.3624 22.3171C11.6128 20.7283 9.8635 19.1413 8.1136 17.5522C9.22657 16.9252 10.3024 16.2343 11.3356 15.4831C11.4481 15.5248 11.5684 15.5512 11.6965 15.5512C11.8279 15.5512 11.9656 15.5284 12.1108 15.484C11.2812 16.111 10.4218 16.6975 9.5356 17.2414C9.5938 17.2945 9.6526 17.3476 9.7105 17.401C9.9031 17.5759 9.871 17.8348 9.6358 17.9737C9.5638 18.0157 9.4924 18.058 9.421 18.0994L12.9202 21.2761C12.9922 21.2341 13.0633 21.1927 13.135 21.1495C13.3705 21.0109 13.717 21.0367 13.9099 21.2116L14.0848 21.3712C14.9979 20.8098 15.8825 20.2034 16.7353 19.5541C16.6213 19.807 16.5691 20.0404 16.5775 20.2525ZM16.9354 18.814C16.0358 19.5275 15.0991 20.1929 14.1292 20.8075C13.8076 20.6326 13.3816 20.6035 13.0201 20.7253L10.1764 18.1444C10.411 17.9071 10.4491 17.5849 10.2796 17.3143C11.3168 16.6581 12.3163 15.9441 13.2733 15.1756C13.3543 15.1699 13.4383 15.166 13.5277 15.166C13.8307 15.165 14.1326 15.2042 14.4253 15.2827L14.4766 15.2968C14.329 15.9178 14.5057 16.5724 15.0394 17.0569C15.5296 17.5015 16.2157 17.7055 16.8811 17.6539C16.9774 18.094 16.972 18.5014 16.9354 18.814ZM18.6076 24.1723C18.2389 24.1723 18.0811 23.8915 18.3715 23.3689C18.712 22.9336 19.1245 22.5754 19.5352 22.2145C19.9531 21.8545 20.3779 21.4963 20.7802 21.1069C21.1774 20.7145 21.5587 20.2882 21.8335 19.7881C22.1134 19.2946 22.2598 18.7156 22.2019 18.1618C22.1497 18.7162 21.9418 19.228 21.6475 19.6786C21.3511 20.1289 20.9791 20.5294 20.5864 20.9107C20.2207 21.2713 19.834 21.6172 19.4638 21.9847C19.321 22.0063 19.1326 22.0273 18.9388 22.0273C18.4789 22.0273 17.9935 21.9076 18.0328 21.3961C18.1462 21.0973 18.3133 20.8417 18.5011 20.599C18.691 20.3575 18.8974 20.1256 19.1035 19.8862C19.3051 19.6432 19.5097 19.393 19.6642 19.1038C19.8196 18.8203 19.9225 18.4807 19.8631 18.1618C19.8043 18.4774 19.657 18.7435 19.4803 18.9907C19.3009 19.237 19.0966 19.4698 18.8914 19.7092C18.6907 19.9516 18.4852 20.1997 18.322 20.4805C18.2799 20.5511 18.2414 20.6236 18.2065 20.698C18.1147 20.7083 18.0223 20.7137 17.9299 20.7142C17.4613 20.7142 16.7809 20.5645 17.3413 19.5838C17.3413 19.5838 17.7103 18.5437 17.3803 17.3476C17.3803 17.3476 17.5777 16.7266 18.1855 16.4044C18.1855 16.4044 18.4984 16.4911 19.1719 16.4911C19.9045 16.4911 21.064 16.3885 22.7119 15.9598C22.838 15.9258 22.968 15.908 23.0986 15.9067C25.735 15.9067 24.1261 24.1723 18.6076 24.1723Z" fill="#FF9F0A"/>
</svg>
