<svg width="32" height="32" viewBox="0 0 32 32" fill="none" xmlns="http://www.w3.org/2000/svg">
<rect width="32" height="32" rx="5" fill="#142032"/>
<g clip-path="url(#clip0)">
<path d="M6.51318 16.9911C6.59122 17.5879 6.88371 18.136 7.33608 18.5331C7.78845 18.9301 8.36982 19.1491 8.97174 19.1491C9.57366 19.1491 10.155 18.9301 10.6074 18.5331C11.0598 18.136 11.3523 17.5879 11.4303 16.9911H6.51318ZM19.9098 21.9827C19.9099 22.0331 19.9001 22.0831 19.881 22.1298C19.8618 22.1765 19.8336 22.2189 19.798 22.2547C19.7624 22.2905 19.7201 22.3189 19.6735 22.3383C19.627 22.3577 19.577 22.3677 19.5266 22.3678H12.3627C12.1522 22.3678 11.9787 22.195 11.9787 21.9827C11.9792 21.8812 12.0199 21.7841 12.0918 21.7127C12.1638 21.6412 12.2612 21.6012 12.3627 21.6014H19.5262C19.7381 21.6014 19.9098 21.7719 19.9098 21.9827ZM12.0205 22.5641H19.8683V23.6727H12.0205V22.5641ZM20.5695 16.9911C20.647 17.5883 20.9392 18.1369 21.3916 18.5345C21.844 18.932 22.4256 19.1513 23.0279 19.1515C23.63 19.1515 24.2116 18.9322 24.6638 18.5346C25.116 18.137 25.408 17.5883 25.4851 16.9911H20.5695ZM25.3499 16.2196L23.3366 13.4464H24.413C24.6748 13.4464 24.8857 13.2317 24.8857 12.9664C24.8857 12.7033 24.6745 12.491 24.413 12.491H18.7113C18.5421 12.0248 18.253 11.6114 17.8732 11.2924C17.4934 10.9734 17.0363 10.7601 16.5479 10.6739V9.17744C16.5479 8.91133 16.3344 8.69898 16.0698 8.69898L16.0252 8.70397L15.9807 8.69898C15.9179 8.69882 15.8556 8.7111 15.7976 8.73511C15.7395 8.75911 15.6868 8.79437 15.6424 8.83884C15.5981 8.88332 15.5629 8.93613 15.5391 8.99425C15.5152 9.05236 15.5031 9.11462 15.5034 9.17744V10.6731C15.015 10.7592 14.558 10.9725 14.1783 11.2916C13.7986 11.6106 13.5097 12.024 13.3407 12.4902H7.63792C7.37795 12.4902 7.16598 12.7026 7.16598 12.9656C7.16598 13.2313 7.37795 13.4456 7.63792 13.4456H8.66512L6.65142 16.2188H6.3999V16.7311H11.5447V16.2188H11.2921L9.27913 13.4464H13.952C13.952 13.3381 13.9639 13.2317 13.9801 13.13C13.9966 13.082 14.0077 13.0332 14.0077 12.9829C14.0943 12.6181 14.2796 12.2841 14.5435 12.0177C14.8073 11.7513 15.1394 11.5627 15.5034 11.4726V16.7323H15.4834C15.4423 18.7106 14.5012 20.4359 13.1049 21.4055H18.9471C17.5505 20.4359 16.6101 18.7106 16.5667 16.7323H16.5483V11.4726C16.9122 11.5627 17.2442 11.7513 17.508 12.0178C17.7718 12.2842 17.9571 12.6181 18.0436 12.9829C18.0451 13.0332 18.0555 13.082 18.0724 13.13C18.0877 13.2321 18.0973 13.3381 18.0973 13.4464H22.7214L20.7077 16.2196H20.4566V16.7319H25.5999V16.2196H25.3499ZM8.76726 16.2196H7.16022L8.76726 14.0059V16.2196ZM9.17853 16.2196V14.0059L10.7856 16.2196H9.17853ZM22.8228 16.2196H21.215L22.8228 14.0059V16.2196ZM23.2322 16.2196V14.0059L24.8411 16.2196H23.2322ZM9.44925 11.8236C9.44572 11.9478 9.39391 12.0657 9.30482 12.1523C9.21572 12.2389 9.09637 12.2874 8.97213 12.2874C8.84788 12.2874 8.72853 12.2389 8.63944 12.1523C8.55034 12.0657 8.49853 11.9478 8.49501 11.8236C8.49501 11.5602 8.70928 11.3451 8.97309 11.3451C9.23574 11.3447 9.44925 11.5602 9.44925 11.8236ZM23.5052 11.7982C23.5052 12.0636 23.2917 12.274 23.0283 12.274C22.9656 12.2744 22.9035 12.2624 22.8455 12.2387C22.7876 12.2149 22.7349 12.1799 22.6905 12.1356C22.6462 12.0914 22.611 12.0388 22.5871 11.9809C22.5632 11.923 22.5511 11.8609 22.5513 11.7982C22.5487 11.734 22.5592 11.6699 22.582 11.6098C22.6048 11.5497 22.6395 11.4948 22.684 11.4484C22.7286 11.4021 22.782 11.3652 22.8412 11.34C22.9003 11.3148 22.964 11.3018 23.0283 11.3018C23.0925 11.3018 23.1562 11.3148 23.2153 11.34C23.2745 11.3652 23.3279 11.4021 23.3725 11.4484C23.417 11.4948 23.4517 11.5497 23.4745 11.6098C23.4973 11.6699 23.5078 11.734 23.5052 11.7982Z" fill="#FF9F0A"/>
</g>
<defs>
<clipPath id="clip0">
<rect width="19.2" height="19.2" fill="white" transform="translate(6.3999 6.3999)"/>
</clipPath>
</defs>
</svg>
