<svg width="32" height="32" viewBox="0 0 32 32" fill="none" xmlns="http://www.w3.org/2000/svg">
<rect width="32" height="32" rx="5" fill="#142032"/>
<g clip-path="url(#clip0)">
<path d="M12.1599 17.2799H11.5199C11.5199 17.4496 11.5873 17.6124 11.7074 17.7325C11.8274 17.8525 11.9902 17.9199 12.1599 17.9199V17.2799ZM17.2799 17.2799V17.9199C17.4496 17.9199 17.6124 17.8525 17.7325 17.7325C17.8525 17.6124 17.9199 17.4496 17.9199 17.2799H17.2799ZM17.2799 14.0799H17.9199C17.9201 13.9958 17.9036 13.9125 17.8716 13.8347C17.8395 13.757 17.7924 13.6863 17.733 13.6268L17.2799 14.0799ZM14.7199 11.5199L15.173 11.0668C15.1136 11.0072 15.0429 10.9599 14.9652 10.9276C14.8874 10.8954 14.8041 10.8788 14.7199 10.8788C14.6357 10.8788 14.5524 10.8954 14.4746 10.9276C14.3969 10.9599 14.3262 11.0072 14.2668 11.0668L14.7199 11.5199ZM12.1599 14.0799L11.7068 13.6268C11.6474 13.6863 11.6003 13.757 11.5682 13.8347C11.5362 13.9125 11.5198 13.9958 11.5199 14.0799H12.1599ZM25.413 24.5068L20.293 19.3868L19.3868 20.293L24.5068 25.413L25.413 24.5068ZM14.7199 21.7599C12.8528 21.7599 11.0621 21.0182 9.74187 19.6979C8.42161 18.3777 7.6799 16.587 7.6799 14.7199H6.3999C6.3999 16.9265 7.27647 19.0427 8.83677 20.603C10.3971 22.1633 12.5133 23.0399 14.7199 23.0399V21.7599ZM21.7599 14.7199C21.7599 16.587 21.0182 18.3777 19.6979 19.6979C18.3777 21.0182 16.587 21.7599 14.7199 21.7599V23.0399C16.9265 23.0399 19.0427 22.1633 20.603 20.603C22.1633 19.0427 23.0399 16.9265 23.0399 14.7199H21.7599ZM14.7199 7.6799C16.587 7.6799 18.3777 8.42161 19.6979 9.74187C21.0182 11.0621 21.7599 12.8528 21.7599 14.7199H23.0399C23.0399 12.5133 22.1633 10.3971 20.603 8.83677C19.0427 7.27647 16.9265 6.3999 14.7199 6.3999V7.6799ZM14.7199 6.3999C12.5133 6.3999 10.3971 7.27647 8.83677 8.83677C7.27647 10.3971 6.3999 12.5133 6.3999 14.7199H7.6799C7.6799 12.8528 8.42161 11.0621 9.74187 9.74187C11.0621 8.42161 12.8528 7.6799 14.7199 7.6799V6.3999ZM12.1599 17.9199H17.2799V16.6399H12.1599V17.9199ZM17.9199 17.2799V14.0799H16.6399V17.2799H17.9199ZM17.733 13.6268L15.173 11.0668L14.2668 11.973L16.8268 14.533L17.733 13.6268ZM14.2668 11.0668L11.7068 13.6268L12.613 14.533L15.173 11.973L14.2668 11.0668ZM11.5199 14.0799V17.2799H12.7999V14.0799H11.5199Z" fill="#FF9F0A"/>
</g>
<defs>
<clipPath id="clip0">
<rect width="19.2" height="19.2" fill="white" transform="translate(6.3999 6.3999)"/>
</clipPath>
</defs>
</svg>
