<svg width="147" height="60" viewBox="0 0 147 60" fill="none" xmlns="http://www.w3.org/2000/svg">
<path d="M19.9097 19.9277L29.8651 9.97229L39.8206 19.9277L29.8651 29.8832L19.9097 19.9277Z" fill="#3998FF"/>
<path d="M19.9019 39.8486L29.8529 29.8976L39.8039 39.8486L29.8529 49.7996L19.9019 39.8486Z" fill="#D763FF"/>
<rect x="9.96436" y="29.875" width="14.0917" height="14.0917" transform="rotate(-45 9.96436 29.875)" fill="#8A88FF"/>
<rect x="9.96436" y="49.7861" width="14.0917" height="14.0917" transform="rotate(-45 9.96436 49.7861)" fill="#FFB800"/>
<path d="M0 19.9189L9.96433 9.95462L19.9287 19.9189L9.96433 29.8833L0 19.9189Z" fill="#8A88FF"/>
<path d="M0 39.8311L9.96433 29.8667L19.9287 39.8311L9.96433 49.7954L0 39.8311Z" fill="#FF7979"/>
<rect x="9.95557" y="9.96484" width="14.0917" height="14.0917" transform="rotate(-45 9.95557 9.96484)" fill="#19E6F3"/>
<path d="M9.95557 29.875L19.9199 19.9107L29.8842 29.875L19.9199 39.8393L9.95557 29.875Z" fill="#3A36FF"/>
<path d="M71.4926 23.1129H65.2046L64.1966 26.0889H59.9006L65.9966 9.24087H70.7486L76.8446 26.0889H72.5006L71.4926 23.1129ZM70.4366 19.9449L68.3486 13.7769L66.2846 19.9449H70.4366ZM85.4199 16.1049H83.2119V26.0889H79.1079V16.1049H77.6199V12.6969H79.1079V12.3129C79.1079 10.6649 79.5799 9.41687 80.5239 8.56887C81.4679 7.70487 82.8519 7.27287 84.6759 7.27287C84.9799 7.27287 85.2039 7.28087 85.3479 7.29687V10.7769C84.5639 10.7289 84.0119 10.8409 83.6919 11.1129C83.3719 11.3849 83.2119 11.8729 83.2119 12.5769V12.6969H85.4199V16.1049ZM94.8124 22.6089V26.0889H92.7244C91.2364 26.0889 90.0764 25.7289 89.2444 25.0089C88.4124 24.2729 87.9964 23.0809 87.9964 21.4329V16.1049H86.3644V12.6969H87.9964V9.43287H92.1004V12.6969H94.7884V16.1049H92.1004V21.4809C92.1004 21.8809 92.1964 22.1689 92.3884 22.3449C92.5804 22.5209 92.9004 22.6089 93.3484 22.6089H94.8124ZM109.722 19.1769C109.722 19.5609 109.698 19.9609 109.65 20.3769H100.362C100.426 21.2089 100.69 21.8489 101.154 22.2969C101.634 22.7289 102.218 22.9449 102.906 22.9449C103.93 22.9449 104.642 22.5129 105.042 21.6489H109.41C109.186 22.5289 108.778 23.3209 108.186 24.0249C107.61 24.7289 106.882 25.2809 106.002 25.6809C105.122 26.0809 104.138 26.2809 103.05 26.2809C101.738 26.2809 100.57 26.0009 99.5464 25.4409C98.5224 24.8809 97.7224 24.0809 97.1464 23.0409C96.5704 22.0009 96.2824 20.7849 96.2824 19.3929C96.2824 18.0009 96.5624 16.7849 97.1224 15.7449C97.6984 14.7049 98.4984 13.9049 99.5224 13.3449C100.546 12.7849 101.722 12.5049 103.05 12.5049C104.346 12.5049 105.498 12.7769 106.506 13.3209C107.514 13.8649 108.298 14.6409 108.858 15.6489C109.434 16.6569 109.722 17.8329 109.722 19.1769ZM105.522 18.0969C105.522 17.3929 105.282 16.8329 104.802 16.4169C104.322 16.0009 103.722 15.7929 103.002 15.7929C102.314 15.7929 101.73 15.9929 101.25 16.3929C100.786 16.7929 100.498 17.3609 100.386 18.0969H105.522ZM115.991 14.9289C116.471 14.1929 117.071 13.6169 117.791 13.2009C118.511 12.7689 119.311 12.5529 120.191 12.5529V16.8969H119.063C118.039 16.8969 117.271 17.1209 116.759 17.5689C116.247 18.0009 115.991 18.7689 115.991 19.8729V26.0889H111.887V12.6969H115.991V14.9289Z" fill="#FF9F0A"/>
<path d="M73.8446 39.6649C73.8446 40.6409 73.6206 41.5369 73.1726 42.3529C72.7246 43.1529 72.0366 43.8009 71.1086 44.2969C70.1806 44.7929 69.0286 45.0409 67.6526 45.0409H65.1086V51.0889H61.0046V34.2409H67.6526C68.9966 34.2409 70.1326 34.4729 71.0606 34.9369C71.9886 35.4009 72.6846 36.0409 73.1486 36.8569C73.6126 37.6729 73.8446 38.6089 73.8446 39.6649ZM67.3406 41.7769C68.1246 41.7769 68.7086 41.5929 69.0926 41.2249C69.4766 40.8569 69.6686 40.3369 69.6686 39.6649C69.6686 38.9929 69.4766 38.4729 69.0926 38.1049C68.7086 37.7369 68.1246 37.5529 67.3406 37.5529H65.1086V41.7769H67.3406ZM75.1652 44.3689C75.1652 42.9929 75.4212 41.7849 75.9332 40.7449C76.4612 39.7049 77.1732 38.9049 78.0692 38.3449C78.9652 37.7849 79.9652 37.5049 81.0692 37.5049C82.0132 37.5049 82.8372 37.6969 83.5412 38.0809C84.2612 38.4649 84.8132 38.9689 85.1972 39.5929V37.6969H89.3012V51.0889H85.1972V49.1929C84.7972 49.8169 84.2372 50.3209 83.5172 50.7049C82.8132 51.0889 81.9892 51.2809 81.0452 51.2809C79.9572 51.2809 78.9652 51.0009 78.0692 50.4409C77.1732 49.8649 76.4612 49.0569 75.9332 48.0169C75.4212 46.9609 75.1652 45.7449 75.1652 44.3689ZM85.1972 44.3929C85.1972 43.3689 84.9092 42.5609 84.3332 41.9689C83.7732 41.3769 83.0852 41.0809 82.2692 41.0809C81.4532 41.0809 80.7572 41.3769 80.1812 41.9689C79.6212 42.5449 79.3412 43.3449 79.3412 44.3689C79.3412 45.3929 79.6212 46.2089 80.1812 46.8169C80.7572 47.4089 81.4532 47.7049 82.2692 47.7049C83.0852 47.7049 83.7732 47.4089 84.3332 46.8169C84.9092 46.2249 85.1972 45.4169 85.1972 44.3929ZM96.3742 39.9289C96.8542 39.1929 97.4542 38.6169 98.1742 38.2009C98.8942 37.7689 99.6942 37.5529 100.574 37.5529V41.8969H99.4462C98.4222 41.8969 97.6542 42.1209 97.1422 42.5689C96.6302 43.0009 96.3742 43.7689 96.3742 44.8729V51.0889H92.2702V37.6969H96.3742V39.9289ZM110 47.6089V51.0889H107.912C106.424 51.0889 105.264 50.7289 104.432 50.0089C103.6 49.2729 103.184 48.0809 103.184 46.4329V41.1049H101.552V37.6969H103.184V34.4329H107.288V37.6969H109.976V41.1049H107.288V46.4809C107.288 46.8809 107.384 47.1689 107.576 47.3449C107.768 47.5209 108.088 47.6089 108.536 47.6089H110ZM125.966 37.6969L117.566 57.4489H113.15L116.222 50.6329L110.774 37.6969H115.358L118.454 46.0729L121.526 37.6969H125.966Z" fill="#F8F2E9"/>
</svg>
