<svg width="147" height="60" viewBox="0 0 147 60" fill="none" xmlns="http://www.w3.org/2000/svg">
<path d="M20.8743 19.9277L30.8297 9.97229L40.7852 19.9277L30.8297 29.8832L20.8743 19.9277Z" fill="#3998FF"/>
<path d="M20.8665 39.8479L30.8175 29.8969L40.7685 39.8479L30.8175 49.7989L20.8665 39.8479Z" fill="#D763FF"/>
<rect x="10.929" y="29.8746" width="14.0917" height="14.0917" transform="rotate(-45 10.929 29.8746)" fill="#8A88FF"/>
<rect x="10.929" y="49.7854" width="14.0917" height="14.0917" transform="rotate(-45 10.929 49.7854)" fill="#FFB800"/>
<path d="M0.9646 19.9192L10.9289 9.95486L20.8933 19.9192L10.9289 29.8835L0.9646 19.9192Z" fill="#8A88FF"/>
<path d="M0.9646 39.8307L10.9289 29.8664L20.8933 39.8307L10.9289 49.795L0.9646 39.8307Z" fill="#FF7979"/>
<rect x="10.9199" y="9.96436" width="14.0917" height="14.0917" transform="rotate(-45 10.9199 9.96436)" fill="#19E6F3"/>
<path d="M10.9199 29.8746L20.8842 19.9103L30.8486 29.8746L20.8842 39.839L10.9199 29.8746Z" fill="#3A36FF"/>
<path d="M72.4572 23.1129H66.1692L65.1612 26.0889H60.8652L66.9612 9.24087H71.7132L77.8092 26.0889H73.4652L72.4572 23.1129ZM71.4012 19.9449L69.3132 13.7769L67.2492 19.9449H71.4012ZM86.3845 16.1049H84.1765V26.0889H80.0725V16.1049H78.5845V12.6969H80.0725V12.3129C80.0725 10.6649 80.5445 9.41687 81.4885 8.56887C82.4325 7.70487 83.8165 7.27287 85.6405 7.27287C85.9445 7.27287 86.1685 7.28087 86.3125 7.29687V10.7769C85.5285 10.7289 84.9765 10.8409 84.6565 11.1129C84.3365 11.3849 84.1765 11.8729 84.1765 12.5769V12.6969H86.3845V16.1049ZM95.777 22.6089V26.0889H93.689C92.201 26.0889 91.041 25.7289 90.209 25.0089C89.377 24.2729 88.961 23.0809 88.961 21.4329V16.1049H87.329V12.6969H88.961V9.43287H93.065V12.6969H95.753V16.1049H93.065V21.4809C93.065 21.8809 93.161 22.1689 93.353 22.3449C93.545 22.5209 93.865 22.6089 94.313 22.6089H95.777ZM110.687 19.1769C110.687 19.5609 110.663 19.9609 110.615 20.3769H101.327C101.391 21.2089 101.655 21.8489 102.119 22.2969C102.599 22.7289 103.183 22.9449 103.871 22.9449C104.895 22.9449 105.607 22.5129 106.007 21.6489H110.375C110.151 22.5289 109.743 23.3209 109.151 24.0249C108.575 24.7289 107.847 25.2809 106.967 25.6809C106.087 26.0809 105.103 26.2809 104.015 26.2809C102.703 26.2809 101.535 26.0009 100.511 25.4409C99.487 24.8809 98.687 24.0809 98.111 23.0409C97.535 22.0009 97.247 20.7849 97.247 19.3929C97.247 18.0009 97.527 16.7849 98.087 15.7449C98.663 14.7049 99.463 13.9049 100.487 13.3449C101.511 12.7849 102.687 12.5049 104.015 12.5049C105.311 12.5049 106.463 12.7769 107.471 13.3209C108.479 13.8649 109.263 14.6409 109.823 15.6489C110.399 16.6569 110.687 17.8329 110.687 19.1769ZM106.487 18.0969C106.487 17.3929 106.247 16.8329 105.767 16.4169C105.287 16.0009 104.687 15.7929 103.967 15.7929C103.279 15.7929 102.695 15.9929 102.215 16.3929C101.751 16.7929 101.463 17.3609 101.351 18.0969H106.487ZM116.956 14.9289C117.436 14.1929 118.036 13.6169 118.756 13.2009C119.476 12.7689 120.276 12.5529 121.156 12.5529V16.8969H120.028C119.004 16.8969 118.236 17.1209 117.724 17.5689C117.212 18.0009 116.956 18.7689 116.956 19.8729V26.0889H112.852V12.6969H116.956V14.9289Z" fill="#FF9F0A"/>
<path d="M74.8092 39.6649C74.8092 40.6409 74.5852 41.5369 74.1372 42.3529C73.6892 43.1529 73.0012 43.8009 72.0732 44.2969C71.1452 44.7929 69.9932 45.0409 68.6172 45.0409H66.0732V51.0889H61.9692V34.2409H68.6172C69.9612 34.2409 71.0972 34.4729 72.0252 34.9369C72.9532 35.4009 73.6492 36.0409 74.1132 36.8569C74.5772 37.6729 74.8092 38.6089 74.8092 39.6649ZM68.3052 41.7769C69.0892 41.7769 69.6732 41.5929 70.0572 41.2249C70.4412 40.8569 70.6332 40.3369 70.6332 39.6649C70.6332 38.9929 70.4412 38.4729 70.0572 38.1049C69.6732 37.7369 69.0892 37.5529 68.3052 37.5529H66.0732V41.7769H68.3052ZM76.1298 44.3689C76.1298 42.9929 76.3858 41.7849 76.8978 40.7449C77.4258 39.7049 78.1378 38.9049 79.0338 38.3449C79.9298 37.7849 80.9298 37.5049 82.0338 37.5049C82.9778 37.5049 83.8018 37.6969 84.5058 38.0809C85.2258 38.4649 85.7778 38.9689 86.1618 39.5929V37.6969H90.2658V51.0889H86.1618V49.1929C85.7618 49.8169 85.2018 50.3209 84.4818 50.7049C83.7778 51.0889 82.9538 51.2809 82.0098 51.2809C80.9218 51.2809 79.9298 51.0009 79.0338 50.4409C78.1378 49.8649 77.4258 49.0569 76.8978 48.0169C76.3858 46.9609 76.1298 45.7449 76.1298 44.3689ZM86.1618 44.3929C86.1618 43.3689 85.8738 42.5609 85.2978 41.9689C84.7378 41.3769 84.0498 41.0809 83.2338 41.0809C82.4178 41.0809 81.7218 41.3769 81.1458 41.9689C80.5858 42.5449 80.3058 43.3449 80.3058 44.3689C80.3058 45.3929 80.5858 46.2089 81.1458 46.8169C81.7218 47.4089 82.4178 47.7049 83.2338 47.7049C84.0498 47.7049 84.7378 47.4089 85.2978 46.8169C85.8738 46.2249 86.1618 45.4169 86.1618 44.3929ZM97.3388 39.9289C97.8188 39.1929 98.4188 38.6169 99.1388 38.2009C99.8588 37.7689 100.659 37.5529 101.539 37.5529V41.8969H100.411C99.3868 41.8969 98.6188 42.1209 98.1068 42.5689C97.5948 43.0009 97.3388 43.7689 97.3388 44.8729V51.0889H93.2348V37.6969H97.3388V39.9289ZM110.964 47.6089V51.0889H108.876C107.388 51.0889 106.228 50.7289 105.396 50.0089C104.564 49.2729 104.148 48.0809 104.148 46.4329V41.1049H102.516V37.6969H104.148V34.4329H108.252V37.6969H110.94V41.1049H108.252V46.4809C108.252 46.8809 108.348 47.1689 108.54 47.3449C108.732 47.5209 109.052 47.6089 109.5 47.6089H110.964ZM126.93 37.6969L118.53 57.4489H114.114L117.186 50.6329L111.738 37.6969H116.322L119.418 46.0729L122.49 37.6969H126.93Z" fill="#142032"/>
</svg>
