<svg width="40" height="40" viewBox="0 0 40 40" fill="none" xmlns="http://www.w3.org/2000/svg">
<rect width="40" height="40" rx="5" fill="#142032"/>
<path d="M20 8.75C13.7866 8.75 8.75 13.787 8.75 20C8.75 26.213 13.7866 31.25 20 31.25C26.213 31.2496 31.25 26.213 31.25 20C31.25 13.787 26.213 8.75 20 8.75ZM20.0007 30.5C17.9304 30.4985 16.2508 28.8507 16.2508 25.5665V24.0684C16.2508 23.8692 16.2931 23.75 16.559 23.75H16.8324V25.07C16.8324 28.3996 18.077 29.8902 20.0004 29.8914C21.9245 29.8914 23.1661 28.4 23.1669 25.0693V23.75H23.4418C23.7073 23.75 23.75 23.8689 23.75 24.0684V25.5665C23.7507 28.8507 22.0711 30.4985 20.0007 30.5ZM17.1342 25.07V23.75H22.865V25.0693C22.865 28.1998 21.7419 29.5606 20.0007 29.5606C18.2604 29.5595 17.1342 28.1986 17.1342 25.07ZM23.1852 29.7991C23.7995 29.0881 24.257 28.0854 24.4254 26.732C25.7015 25.6415 26.3757 24.1119 26.3757 22.625C26.3757 22.4401 26.2288 22.25 25.9539 22.25H14.0472C13.7724 22.25 13.625 22.4401 13.625 22.625C13.625 24.1119 14.2992 25.6415 15.5761 26.732C15.7445 28.0917 16.2061 29.0975 16.8241 29.8089C12.6875 28.4668 9.6875 24.5784 9.6875 20C9.6875 14.3135 14.3135 9.6875 20 9.6875C25.6861 9.6875 30.3125 14.3135 30.3125 20C30.3125 24.5739 27.3155 28.4529 23.1852 29.7991Z" fill="#FF9F0A"/>
<path d="M15.1126 15.7846C15.1126 14.8774 17.0829 15.3139 17.747 15.9297C18.1385 15.2869 17.9525 14.7454 17.9525 14.7454C17.9525 14.7454 17.3821 14.3423 16.5425 14.1878L16.5406 13.3448C15.8514 13.1326 15.1108 13.3448 15.1108 13.3448V14.1282C15.1108 14.1282 13.751 14.3783 13.751 15.7849C13.751 17.6067 16.5418 17.2546 16.5418 18.4283C16.5418 19.2841 14.6679 18.9274 13.751 18.2449C13.4664 18.9342 13.751 19.5289 13.751 19.5289C14.1857 19.7142 14.6425 19.8427 15.11 19.9111L15.1123 20.6506C15.1123 20.6506 15.8529 20.8763 16.5421 20.6506V19.8616C16.5421 19.8616 18.125 19.7746 18.125 18.4287C18.125 16.6793 15.1126 16.8304 15.1126 15.7846Z" fill="#FF9F0A"/>
<path d="M23.3626 15.7846C23.3626 14.8774 25.3329 15.3139 25.997 15.9297C26.3885 15.2869 26.2025 14.7454 26.2025 14.7454C26.2025 14.7454 25.6321 14.3423 24.7925 14.1878L24.7906 13.3448C24.1014 13.1326 23.3608 13.3448 23.3608 13.3448V14.1282C23.3608 14.1282 22.001 14.3783 22.001 15.7849C22.001 17.6067 24.7918 17.2546 24.7918 18.4283C24.7918 19.2841 22.9179 18.9274 22.001 18.2449C21.7164 18.9342 22.001 19.5289 22.001 19.5289C22.4357 19.7142 22.8925 19.8426 23.36 19.9111L23.3623 20.6506C23.3623 20.6506 24.1029 20.8763 24.7921 20.6506V19.8616C24.7921 19.8616 26.375 19.7746 26.375 18.4287C26.375 16.6793 23.3626 16.8304 23.3626 15.7846Z" fill="#FF9F0A"/>
<path d="M19.523 28.4811L19.5241 28.9618C19.5241 28.9618 19.9865 29.1084 20.4177 28.9618V28.4492C20.4177 28.4492 21.4074 28.3922 21.4074 27.5177C21.4074 26.3811 19.5245 26.4789 19.5245 25.7994C19.5245 25.2099 20.7564 25.4938 21.1711 25.8939C21.4156 25.4766 21.3001 25.1241 21.3001 25.1241C21.3001 25.1241 20.9435 24.8619 20.4181 24.7614L20.4174 24.2132C19.9869 24.0752 19.5237 24.2132 19.5237 24.2132V24.7224C19.5237 24.7224 18.674 24.8852 18.674 25.7991C18.674 26.9833 20.4177 26.7546 20.4177 27.5173C20.4177 28.0734 19.2466 27.8417 18.674 27.3981C18.5683 27.6664 18.5683 27.9648 18.674 28.2332C18.9446 28.3534 19.2302 28.4368 19.523 28.4811Z" fill="#FF9F0A"/>
</svg>
