<svg width="183" height="242" viewBox="0 0 183 242" fill="none" xmlns="http://www.w3.org/2000/svg">
<path d="M96.3861 -38.7444C99.1116 -35.4003 105.873 -28.4668 111.114 -27.4853C117.665 -26.2584 145.041 -12.0681 148.492 -4.70723C151.257 0.187952 154.508 11.807 145.385 19.1218C141.644 24.4963 129.147 32.2091 109.088 20.064C108.982 21.9294 109.527 26.1992 112.563 28.3556C116.358 31.051 126.324 38.2428 129.593 38.6235C132.863 39.0043 168.651 54.3732 170.827 66.4238C173.776 72.4007 177.391 86.0902 168.258 93.0327C163.905 98.7336 149.892 106.641 128.668 92.6635C122.506 88.4773 109.684 78.9072 107.698 74.116C106.449 73.838 104.352 74.3891 105.957 78.8177C107.963 84.3535 128.589 107.566 134.735 111.132C140.881 114.698 174.488 135.711 177.068 145.423C179.512 149.861 183.33 160.627 179.056 168.188C173.714 177.64 165.519 184.838 155.257 184.173C146.416 184.402 126.517 182.032 117.655 170.714C117.516 171.338 117.647 173.973 119.281 179.519C121.324 186.451 127.064 228.21 105.374 235.758C96.4945 240.49 75.2564 245.108 61.3424 225.726C55.8672 218.107 45.4813 199.502 47.7393 186.032C47.8864 185.718 47.7176 185.195 45.8659 185.615C43.5513 186.141 25.0101 189.416 16.3924 180.327C13.3889 178.232 7.14736 172.185 6.20955 164.759C5.03727 155.476 11.2742 144.605 19.4812 137.872C27.6883 131.14 42.3134 120.516 44.1265 118.606C45.9395 116.697 68.2701 97.9565 73.111 87.1208C74.7488 84.4396 77.8165 78.2444 76.985 74.9132C75.4661 76.1944 72.0681 79.2318 70.6273 81.1318C68.8263 83.5068 51.6024 101.649 38.597 102.918C32.886 104.152 20.2964 104.697 15.6262 96.9948C12.1171 93.3607 6.06699 83.9252 9.93972 75.2567C11.3741 70.7181 17.2706 59.886 29.3816 52.8662C35.9809 49.0412 36.974 48.3296 35.7184 48.8965C33.5301 50.0166 31.5069 51.0559 29.8228 51.9235C32.0525 50.7353 34.6697 49.37 35.7184 48.8965C45.074 44.1076 57.4477 37.8405 59.2422 37.1902C62.0101 36.187 69.7276 28.5362 71.3957 21.0424C67.8805 23.1515 60.4777 27.3794 58.9886 27.418C57.1272 27.4663 38.6102 31.6723 34.6338 21.9967C30.2928 16.2111 24.0751 2.71329 33.9332 -4.99307C37.8655 -8.9756 48.7699 -18.2303 60.9293 -23.3887C65.2282 -25.2077 74.2768 -29.4162 76.0802 -31.6981C78.3344 -34.5506 77.8449 -35.4692 80.1354 -36.9256C82.4259 -38.382 89.7988 -41.3673 96.3861 -38.7444Z" fill="#F8F2E9"/>
</svg>
