<svg width="28" height="28" viewBox="0 0 28 28" fill="none" xmlns="http://www.w3.org/2000/svg">
<path d="M19.5265 0.666504C24.2465 0.666504 27.4198 3.7065 27.4198 8.2265V19.7865C27.4198 24.3052 24.2465 27.3332 19.5265 27.3332H8.63317C3.92651 27.3332 0.753174 24.3052 0.753174 19.7865V8.2265C0.753174 3.7065 3.92651 0.666504 8.63317 0.666504H19.5265ZM15.2198 8.29317C14.8332 7.9065 14.1932 7.9065 13.8065 8.29317C13.4198 8.69317 13.4198 9.31984 13.8065 9.71984L17.1132 12.9998H8.64651C8.08651 12.9998 7.64651 13.4532 7.64651 13.9998C7.64651 14.5598 8.08651 14.9998 8.64651 14.9998H17.1132L13.8065 18.2932C13.6198 18.4798 13.5132 18.7465 13.5132 18.9998C13.5132 19.2518 13.6198 19.5065 13.8065 19.7065C14.1932 20.0932 14.8332 20.0932 15.2198 19.7065L20.2465 14.7065C20.6198 14.3332 20.6198 13.6665 20.2465 13.2932L15.2198 8.29317Z" fill="white"/>
</svg>
