<svg width="40" height="40" viewBox="0 0 40 40" fill="none" xmlns="http://www.w3.org/2000/svg">
<rect width="40" height="40" rx="5" fill="#142032"/>
<path d="M22.6784 18.8001H24.2C24.3591 18.8001 24.5117 18.8633 24.6242 18.9758C24.7367 19.0883 24.8 19.2409 24.8 19.4001C24.8 19.5592 24.7367 19.7118 24.6242 19.8243C24.5117 19.9369 24.3591 20.0001 24.2 20.0001H15.8C15.6408 20.0001 15.4882 19.9369 15.3757 19.8243C15.2632 19.7118 15.2 19.5592 15.2 19.4001C15.2 19.2409 15.2632 19.0883 15.3757 18.9758C15.4882 18.8633 15.6408 18.8001 15.8 18.8001H16.7084C16.5385 18.6117 16.4328 18.3743 16.4062 18.1221C16.3797 17.8698 16.4338 17.6157 16.5608 17.3961L19.5608 12.2001C19.7199 11.9245 19.982 11.7234 20.2894 11.641C20.5968 11.5586 20.9243 11.6017 21.2 11.7609L24.3176 13.5609C24.5932 13.72 24.7943 13.9821 24.8766 14.2895C24.959 14.5969 24.9159 14.9244 24.7568 15.2001L22.6784 18.8001ZM23.7176 14.6001L20.6 12.8001L17.6 17.9961L18.992 18.8001H21.2936L23.7176 14.6001Z" fill="#FF9F0A"/>
<path d="M24.7519 17.5999L25.4443 16.3999C25.623 16.4066 25.798 16.4532 25.9564 16.5363C26.1149 16.6193 26.2527 16.7367 26.3599 16.8799L29.3599 20.8795C29.5157 21.0872 29.5999 21.3399 29.5999 21.5995V27.1999C29.5999 27.5182 29.4735 27.8234 29.2484 28.0484C29.0234 28.2735 28.7182 28.3999 28.3999 28.3999H11.5999C11.2816 28.3999 10.9764 28.2735 10.7514 28.0484C10.5263 27.8234 10.3999 27.5182 10.3999 27.1999V21.5995C10.3999 21.3399 10.4841 21.0872 10.6399 20.8795L13.6399 16.8799C13.7517 16.7309 13.8966 16.6099 14.0632 16.5266C14.2299 16.4433 14.4136 16.3999 14.5999 16.3999H15.7555L15.1807 17.3959C15.1432 17.4608 15.1119 17.5291 15.0871 17.5999H14.5999L11.8999 21.1999H28.0999L25.3999 17.5999H24.7519ZM11.5999 27.1999H28.3999V22.3999H11.5999V27.1999Z" fill="#FF9F0A"/>
</svg>
